<svg width="416" height="101" viewBox="0 0 416 101" fill="none" xmlns="http://www.w3.org/2000/svg">
<g clip-path="url(#clip0_145_4452)">
<path d="M20.3411 97.9189C13.704 96.2018 7.54635 93.4172 1.86823 89.5318C1.00412 88.9406 1.12048 87.6525 2.06133 87.1925L8.33026 84.1273C8.80309 83.8959 9.36538 83.9507 9.79043 84.2606C14.9041 87.991 20.2261 90.6779 25.7565 92.2425C31.5359 93.9225 38.8624 94.7399 47.7819 94.7399C59.4316 94.7399 68.4419 93.5138 74.8129 91.0161C81.1839 88.5187 84.3695 85.0217 84.3695 80.526C84.3695 77.7107 83.1864 75.4401 80.8198 73.805C78.4536 72.125 74.3124 70.7171 68.351 69.4911C62.3896 68.2648 53.6069 67.0387 41.9568 65.722C29.1695 64.3595 19.7495 62.0436 13.6061 58.8646C7.46262 55.6859 4.41364 51.417 4.41364 46.1039C4.41364 39.7916 8.46378 34.8871 16.6095 31.2542C20.8417 29.3923 29.397 26.1681 50.1481 25.8502C61.3428 25.6685 64.6649 26.5313 80.6379 27.1671C91.0815 27.609 89.9875 27.5544 91.691 27.6309C92.4381 27.6644 93.0266 28.2799 93.0266 29.0262C93.0266 32.3133 93.0266 31.5756 93.0266 35.1347C93.0266 36.0989 92.0698 36.7742 91.1493 36.4807C87.1876 35.2163 83.725 34.6089 76.2692 33.3885C64.7558 31.5266 55.7909 31.7083 49.784 31.8899C34.4938 32.3441 28.5779 34.7055 26.439 35.6138C20.6596 38.1112 17.7927 41.4717 17.7927 45.6499C17.7927 49.3737 20.3411 52.3255 25.3924 54.5049C30.4892 56.6847 38.817 58.4105 50.4667 59.7273C62.7536 61.0898 72.2648 62.6791 78.9998 64.4049C85.7349 66.1306 90.5586 68.2194 93.4253 70.6718C96.2924 73.1238 97.7032 76.3028 97.7032 80.2538C97.7032 86.8836 93.4708 91.9699 85.0522 95.4665C76.6332 98.9634 64.4376 100.689 48.4191 100.689C37.0876 100.78 27.7132 99.8261 20.3411 97.9189Z" fill="black"/>
<path d="M109.046 94.0357C102.038 90.4934 98.5342 85.0895 98.5342 77.8235V28.6761C98.5342 27.9052 99.1605 27.2802 99.9331 27.2802H107.408C110.048 27.2802 112.186 28.7787 112.186 30.6861V77.8235C112.186 83.0915 114.553 86.9968 119.286 89.5399C124.018 92.0831 131.345 93.3544 141.311 93.3544H182.461C183.234 93.3544 183.86 93.9795 183.86 94.7504V97.9528C183.86 98.7237 183.234 99.3488 182.461 99.3488H141.311C126.794 99.3488 116.054 97.5776 109.046 94.0357Z" fill="black"/>
<path d="M188.592 27.2802H193.461C193.961 27.2802 194.416 27.598 194.416 27.9614V98.6675C194.416 99.0308 194.007 99.3488 193.461 99.3488H184.769C184.268 99.3488 183.813 99.0308 183.813 98.6675V30.6861C183.813 28.8242 185.952 27.2802 188.592 27.2802Z" fill="black"/>
<path d="M308.559 93.3548C309.331 93.3548 309.957 93.9798 309.957 94.7508V97.9531C309.957 98.7244 309.331 99.3491 308.559 99.3491H211.662C204.062 99.3491 185.541 100.258 184.859 97.8505C184.085 94.8987 189.091 93.6727 189.091 90.7209V88.0508C189.091 87.5412 189.369 87.0718 189.817 86.8268L275.554 39.9051C279.468 37.7707 277.329 33.3204 272.414 33.3204H207.983C207.21 33.3204 206.584 32.6954 206.584 31.9244V28.7674C206.584 27.9964 207.22 27.3714 207.992 27.3714C244.786 27.3714 268.814 27.3714 305.435 27.3714C306.446 27.3714 307.126 28.4065 306.631 29.2855C305.961 30.4732 305.064 31.8107 303.86 33.1841C302.085 35.2276 300.128 36.7261 298.535 37.8161L205.109 88.9498C204.654 89.177 204.426 89.5403 204.426 89.9489C204.426 91.175 205.155 92.038 206.611 92.5828C208.067 93.0826 210.616 93.3548 214.165 93.3548H308.559Z" fill="black"/>
<path d="M379.678 60.2732C384.91 62.9978 389.323 67.539 393.009 73.8512L404.295 94.9679C405.48 97.1477 410.212 99.4636 406.935 99.4636H395.831C393.922 99.4636 392.145 98.6009 391.463 97.3292L379.087 74.4417C377.264 71.0813 375.128 68.4474 372.715 66.5855C370.301 64.6782 367.07 63.3158 363.02 62.4077C359.334 61.59 354.511 61.0452 348.55 60.7273C347.413 60.6819 346.275 60.9091 345.365 61.4085L318.834 75.8039C317.697 76.4397 317.014 77.3935 317.014 78.4381V92.6973C317.014 96.4211 312.782 99.4183 307.594 99.4183C305 99.4183 302.907 97.9197 302.907 96.1032V29.1266C302.907 27.3102 305 27.395 307.594 27.395H312.372C314.966 27.395 317.059 28.8936 317.059 30.71V61.0452C317.059 63.8152 321.519 65.3591 324.568 63.6791L389.414 28.0761C390.236 27.622 391.236 27.395 392.282 27.395H394.286C398.745 27.395 400.654 31.4366 397.108 33.3439L365.706 50.4187C362.611 52.0991 363.615 55.5957 367.392 56.2769C372.351 57.2761 376.446 58.5928 379.678 60.2732Z" fill="black"/>
<path d="M408.209 27.2802C411.122 27.2802 413.489 28.9604 413.489 31.0493V95.5796C413.489 97.6687 411.122 99.3488 408.209 99.3488C405.295 99.3488 402.931 97.6687 402.931 95.5796V31.0493C402.931 28.9604 405.25 27.2802 408.209 27.2802Z" fill="black"/>
<path d="M189.147 15.2484C192.787 15.2484 195.738 12.3036 195.738 8.67113C195.738 5.03865 192.787 2.09393 189.147 2.09393C185.507 2.09393 182.556 5.03865 182.556 8.67113C182.556 12.3036 185.507 15.2484 189.147 15.2484Z" fill="black"/>
<path d="M409.073 13.1544C412.714 13.1544 415.666 10.2096 415.666 6.57713C415.666 2.94465 412.714 -6.10352e-05 409.073 -6.10352e-05C405.433 -6.10352e-05 402.481 2.94465 402.481 6.57713C402.481 10.2096 405.433 13.1544 409.073 13.1544Z" fill="black"/>
</g>
<defs>
<clipPath id="clip0_145_4452">
<rect width="415.825" height="100.86" fill="white"/>
</clipPath>
</defs>
</svg>
