<svg width="52" height="52" viewBox="0 0 52 52" fill="none" xmlns="http://www.w3.org/2000/svg">
<circle cx="26" cy="26" r="25.5" fill="white" stroke="black"/>
<path d="M32.9744 22.0427C34.2533 20.5496 34.791 18.7344 34.791 17.0071C34.791 15.6165 34.4131 12.8352 31.9862 10.9176C30.3149 9.6148 28.8471 9 25.3156 9H16V44H37V37.2811C37 30.8549 34.9363 26.5366 29.6028 24.6336C31.274 23.931 32.3059 22.8624 32.9744 22.0427ZM28.8035 21.3693C27.8443 22.5696 26.2893 23.6821 24.0803 23.6821H24.0367V25.4241C29.937 25.4241 32.2478 29.3764 32.2478 36.6077V42.0531H28.4547V30.3718H24.0803V42.0678H20.7377V10.7419H24.182C25.4754 10.7419 27.4228 11.0347 28.8035 12.762C29.5156 13.6403 29.9661 14.7967 30.1114 15.9678H24.0803V17.6951H30.155C30.1114 18.8076 29.8789 20.0519 28.8035 21.3693Z" fill="black"/>
</svg>
