<svg width="2075" height="146" viewBox="0 0 2075 146" fill="none" xmlns="http://www.w3.org/2000/svg">
<path d="M0 0H2074V146H0V0Z" fill="white"/>
<line x1="420.656" y1="4.10321e-08" x2="420.656" y2="36.2745" stroke="black" stroke-width="2"/>
<line x1="141.656" y1="4.10321e-08" x2="141.656" y2="36.2745" stroke="black" stroke-width="2"/>
<line y1="-1" x2="36.2745" y2="-1" transform="matrix(4.65656e-08 1 1 -4.10321e-08 281 0)" stroke="black" stroke-width="2"/>
<line y1="-1" x2="36.2745" y2="-1" transform="matrix(4.65656e-08 1 1 -4.10321e-08 2 0)" stroke="black" stroke-width="2"/>
<line x1="431.792" y1="4.31776e-08" x2="431.792" y2="18.3457" stroke="black" stroke-width="2"/>
<line x1="152.792" y1="4.31776e-08" x2="152.792" y2="18.3457" stroke="black" stroke-width="2"/>
<line x1="406" y1="4.31776e-08" x2="406" y2="18.3457" stroke="black" stroke-width="2"/>
<line x1="127" y1="4.31776e-08" x2="127" y2="18.3457" stroke="black" stroke-width="2"/>
<line y1="-1" x2="18.3457" y2="-1" transform="matrix(4.42518e-08 1 1 -4.31776e-08 294.656 0)" stroke="black" stroke-width="2"/>
<line y1="-1" x2="18.3457" y2="-1" transform="matrix(4.42518e-08 1 1 -4.31776e-08 15.6555 0)" stroke="black" stroke-width="2"/>
<line x1="445.964" y1="4.10321e-08" x2="445.964" y2="18.3457" stroke="black" stroke-width="2"/>
<line x1="166.964" y1="4.10321e-08" x2="166.964" y2="18.3457" stroke="black" stroke-width="2"/>
<line x1="460.139" x2="460.139" y2="18.3457" stroke="black" stroke-width="2"/>
<line x1="181.139" x2="181.139" y2="18.3457" stroke="black" stroke-width="2"/>
<line x1="474.311" y1="4.31776e-08" x2="474.311" y2="18.3457" stroke="black" stroke-width="2"/>
<line x1="195.311" y1="4.31776e-08" x2="195.311" y2="18.3457" stroke="black" stroke-width="2"/>
<line x1="488.481" y1="4.10321e-08" x2="488.481" y2="24.183" stroke="black" stroke-width="2"/>
<line x1="209.481" y1="4.10321e-08" x2="209.481" y2="24.183" stroke="black" stroke-width="2"/>
<line x1="350" y1="4.10321e-08" x2="350" y2="24.183" stroke="black" stroke-width="2"/>
<line x1="71" y1="4.10321e-08" x2="71" y2="24.183" stroke="black" stroke-width="2"/>
<line x1="502.662" y1="4.10321e-08" x2="502.662" y2="18.3457" stroke="black" stroke-width="2"/>
<line x1="223.662" y1="4.10321e-08" x2="223.662" y2="18.3457" stroke="black" stroke-width="2"/>
<line x1="516.828" y1="4.10321e-08" x2="516.828" y2="18.3457" stroke="black" stroke-width="2"/>
<line x1="237.828" y1="4.10321e-08" x2="237.828" y2="18.3457" stroke="black" stroke-width="2"/>
<line x1="531.004" x2="531.004" y2="18.3457" stroke="black" stroke-width="2"/>
<line x1="252.004" x2="252.004" y2="18.3457" stroke="black" stroke-width="2"/>
<line x1="545.174" y1="4.10321e-08" x2="545.174" y2="18.3457" stroke="black" stroke-width="2"/>
<line x1="266.174" y1="4.10321e-08" x2="266.174" y2="18.3457" stroke="black" stroke-width="2"/>
<line x1="558.335" y1="4.10321e-08" x2="558.335" y2="36.2745" stroke="black" stroke-width="2"/>
<line x1="558.335" y1="4.10321e-08" x2="558.335" y2="36.2745" stroke="black" stroke-width="2"/>
<line x1="569.473" y1="4.10321e-08" x2="569.473" y2="18.3457" stroke="black" stroke-width="2"/>
<line x1="583.649" y1="4.31776e-08" x2="583.649" y2="18.3457" stroke="black" stroke-width="2"/>
<line x1="597.819" x2="597.819" y2="18.3457" stroke="black" stroke-width="2"/>
<line x1="611.996" y1="4.10321e-08" x2="611.996" y2="18.3457" stroke="black" stroke-width="2"/>
<line x1="626.166" y1="4.31776e-08" x2="626.166" y2="24.183" stroke="black" stroke-width="2"/>
<line x1="640.338" y1="4.10321e-08" x2="640.338" y2="18.3457" stroke="black" stroke-width="2"/>
<line x1="654.513" y1="4.10321e-08" x2="654.513" y2="18.3457" stroke="black" stroke-width="2"/>
<line x1="668.689" x2="668.689" y2="18.3457" stroke="black" stroke-width="2"/>
<line x1="682.855" y1="4.10321e-08" x2="682.855" y2="18.3457" stroke="black" stroke-width="2"/>
<line x1="696.02" y1="4.10321e-08" x2="696.02" y2="36.2745" stroke="black" stroke-width="2"/>
<line x1="696.02" y1="4.10321e-08" x2="696.02" y2="36.2745" stroke="black" stroke-width="2"/>
<line x1="833.701" y1="4.10321e-08" x2="833.701" y2="36.2745" stroke="black" stroke-width="2"/>
<line x1="971.381" y1="4.10321e-08" x2="971.381" y2="36.2745" stroke="black" stroke-width="2"/>
<line x1="1109.06" y1="4.31776e-08" x2="1109.06" y2="36.2745" stroke="black" stroke-width="2"/>
<line x1="1246.74" y1="4.10321e-08" x2="1246.74" y2="36.2745" stroke="black" stroke-width="2"/>
<line x1="1384.42" y1="4.10321e-08" x2="1384.42" y2="36.2745" stroke="black" stroke-width="2"/>
<line x1="1522.1" y1="4.31776e-08" x2="1522.1" y2="36.2745" stroke="black" stroke-width="2"/>
<line x1="1659.79" y1="4.10321e-08" x2="1659.79" y2="36.2745" stroke="black" stroke-width="2"/>
<line x1="707.153" y1="4.10321e-08" x2="707.153" y2="18.3457" stroke="black" stroke-width="2"/>
<line x1="844.834" y1="4.31776e-08" x2="844.834" y2="18.3457" stroke="black" stroke-width="2"/>
<line x1="982.519" y1="4.10321e-08" x2="982.519" y2="18.3457" stroke="black" stroke-width="2"/>
<line x1="1120.2" y1="4.10321e-08" x2="1120.2" y2="18.3457" stroke="black" stroke-width="2"/>
<line x1="1257.88" y1="4.10321e-08" x2="1257.88" y2="18.3457" stroke="black" stroke-width="2"/>
<line x1="1395.56" y1="4.31776e-08" x2="1395.56" y2="18.3457" stroke="black" stroke-width="2"/>
<line x1="1533.25" y1="4.10321e-08" x2="1533.25" y2="18.3457" stroke="black" stroke-width="2"/>
<line x1="1670.93" y1="4.10321e-08" x2="1670.93" y2="18.3457" stroke="black" stroke-width="2"/>
<line x1="1809" y1="4.10321e-08" x2="1809" y2="18.3457" stroke="black" stroke-width="2"/>
<line x1="1947" y1="4.10321e-08" x2="1947" y2="18.3457" stroke="black" stroke-width="2"/>
<line x1="721.324" y1="4.10321e-08" x2="721.324" y2="18.3457" stroke="black" stroke-width="2"/>
<line x1="859.004" y1="4.10321e-08" x2="859.004" y2="18.3457" stroke="black" stroke-width="2"/>
<line x1="996.689" y1="4.31776e-08" x2="996.689" y2="18.3457" stroke="black" stroke-width="2"/>
<line x1="1134.37" y1="4.10321e-08" x2="1134.37" y2="18.3457" stroke="black" stroke-width="2"/>
<line x1="1272.05" y1="4.10321e-08" x2="1272.05" y2="18.3457" stroke="black" stroke-width="2"/>
<line x1="1409.73" y1="4.10321e-08" x2="1409.73" y2="18.3457" stroke="black" stroke-width="2"/>
<line x1="1547.42" y1="4.31776e-08" x2="1547.42" y2="18.3457" stroke="black" stroke-width="2"/>
<line x1="1685.1" y1="4.10321e-08" x2="1685.1" y2="18.3457" stroke="black" stroke-width="2"/>
<line x1="1823.17" y1="4.10321e-08" x2="1823.17" y2="18.3457" stroke="black" stroke-width="2"/>
<line x1="1961.17" y1="4.10321e-08" x2="1961.17" y2="18.3457" stroke="black" stroke-width="2"/>
<line x1="735.5" x2="735.5" y2="18.3457" stroke="black" stroke-width="2"/>
<line x1="873.179" x2="873.179" y2="18.3457" stroke="black" stroke-width="2"/>
<line x1="1010.86" x2="1010.86" y2="18.3457" stroke="black" stroke-width="2"/>
<line x1="1148.55" x2="1148.55" y2="18.3457" stroke="black" stroke-width="2"/>
<line x1="1286.23" x2="1286.23" y2="18.3457" stroke="black" stroke-width="2"/>
<line x1="1423.91" x2="1423.91" y2="18.3457" stroke="black" stroke-width="2"/>
<line x1="1561.59" x2="1561.59" y2="18.3457" stroke="black" stroke-width="2"/>
<line x1="1699.27" x2="1699.27" y2="18.3457" stroke="black" stroke-width="2"/>
<line x1="1837.35" x2="1837.35" y2="18.3457" stroke="black" stroke-width="2"/>
<line x1="1975.35" x2="1975.35" y2="18.3457" stroke="black" stroke-width="2"/>
<line x1="749.676" y1="4.10321e-08" x2="749.676" y2="18.3457" stroke="black" stroke-width="2"/>
<line x1="887.351" y1="4.31776e-08" x2="887.351" y2="18.3457" stroke="black" stroke-width="2"/>
<line x1="1025.04" y1="4.10321e-08" x2="1025.04" y2="18.3457" stroke="black" stroke-width="2"/>
<line x1="1162.71" y1="4.10321e-08" x2="1162.71" y2="18.3457" stroke="black" stroke-width="2"/>
<line x1="1300.4" y1="4.10321e-08" x2="1300.4" y2="18.3457" stroke="black" stroke-width="2"/>
<line x1="1438.08" y1="4.10321e-08" x2="1438.08" y2="18.3457" stroke="black" stroke-width="2"/>
<line x1="1575.76" y1="4.10321e-08" x2="1575.76" y2="18.3457" stroke="black" stroke-width="2"/>
<line x1="1713.44" y1="4.10321e-08" x2="1713.44" y2="18.3457" stroke="black" stroke-width="2"/>
<line x1="1851.51" y1="4.10321e-08" x2="1851.51" y2="18.3457" stroke="black" stroke-width="2"/>
<line x1="1989.51" y1="4.10321e-08" x2="1989.51" y2="18.3457" stroke="black" stroke-width="2"/>
<line x1="763.847" y1="4.10321e-08" x2="763.847" y2="24.183" stroke="black" stroke-width="2"/>
<line x1="901.527" y1="4.10321e-08" x2="901.527" y2="24.183" stroke="black" stroke-width="2"/>
<line x1="1039.21" y1="4.31776e-08" x2="1039.21" y2="24.183" stroke="black" stroke-width="2"/>
<line x1="1176.89" y1="4.10321e-08" x2="1176.89" y2="24.183" stroke="black" stroke-width="2"/>
<line x1="1314.57" y1="4.10321e-08" x2="1314.57" y2="24.183" stroke="black" stroke-width="2"/>
<line x1="1452.25" y1="4.10321e-08" x2="1452.25" y2="24.183" stroke="black" stroke-width="2"/>
<line x1="1589.94" y1="4.10321e-08" x2="1589.94" y2="24.183" stroke="black" stroke-width="2"/>
<line x1="1727.62" y1="4.10321e-08" x2="1727.62" y2="24.183" stroke="black" stroke-width="2"/>
<line x1="1865.69" y1="4.10321e-08" x2="1865.69" y2="24.183" stroke="black" stroke-width="2"/>
<line x1="2003.69" y1="4.10321e-08" x2="2003.69" y2="24.183" stroke="black" stroke-width="2"/>
<line x1="778.023" y1="4.31776e-08" x2="778.023" y2="18.3457" stroke="black" stroke-width="2"/>
<line x1="915.702" y1="4.10321e-08" x2="915.702" y2="18.3457" stroke="black" stroke-width="2"/>
<line x1="1053.38" y1="4.10321e-08" x2="1053.38" y2="18.3457" stroke="black" stroke-width="2"/>
<line x1="1191.06" y1="4.31776e-08" x2="1191.06" y2="18.3457" stroke="black" stroke-width="2"/>
<line x1="1328.74" y1="4.10321e-08" x2="1328.74" y2="18.3457" stroke="black" stroke-width="2"/>
<line x1="1466.42" y1="4.10321e-08" x2="1466.42" y2="18.3457" stroke="black" stroke-width="2"/>
<line x1="1604.1" y1="4.10321e-08" x2="1604.1" y2="18.3457" stroke="black" stroke-width="2"/>
<line x1="1741.79" y1="4.10321e-08" x2="1741.79" y2="18.3457" stroke="black" stroke-width="2"/>
<line x1="1879.86" y1="4.10321e-08" x2="1879.86" y2="18.3457" stroke="black" stroke-width="2"/>
<line x1="2017.86" y1="4.10321e-08" x2="2017.86" y2="18.3457" stroke="black" stroke-width="2"/>
<line x1="792.189" y1="4.10321e-08" x2="792.189" y2="18.3457" stroke="black" stroke-width="2"/>
<line x1="929.874" y1="4.31776e-08" x2="929.874" y2="18.3457" stroke="black" stroke-width="2"/>
<line x1="1067.56" y1="4.10321e-08" x2="1067.56" y2="18.3457" stroke="black" stroke-width="2"/>
<line x1="1205.23" y1="4.10321e-08" x2="1205.23" y2="18.3457" stroke="black" stroke-width="2"/>
<line x1="1342.91" y1="4.31776e-08" x2="1342.91" y2="18.3457" stroke="black" stroke-width="2"/>
<line x1="1480.6" y1="4.10321e-08" x2="1480.6" y2="18.3457" stroke="black" stroke-width="2"/>
<line x1="1618.28" y1="4.10321e-08" x2="1618.28" y2="18.3457" stroke="black" stroke-width="2"/>
<line x1="1755.96" y1="4.10321e-08" x2="1755.96" y2="18.3457" stroke="black" stroke-width="2"/>
<line x1="1894.03" y1="4.10321e-08" x2="1894.03" y2="18.3457" stroke="black" stroke-width="2"/>
<line x1="2032.03" y1="4.10321e-08" x2="2032.03" y2="18.3457" stroke="black" stroke-width="2"/>
<line x1="806.368" x2="806.368" y2="18.3457" stroke="black" stroke-width="2"/>
<line x1="944.05" x2="944.05" y2="18.3457" stroke="black" stroke-width="2"/>
<line x1="1081.73" x2="1081.73" y2="18.3457" stroke="black" stroke-width="2"/>
<line x1="1219.41" x2="1219.41" y2="18.3457" stroke="black" stroke-width="2"/>
<line x1="1357.09" x2="1357.09" y2="18.3457" stroke="black" stroke-width="2"/>
<line x1="1494.77" x2="1494.77" y2="18.3457" stroke="black" stroke-width="2"/>
<line x1="1632.45" x2="1632.45" y2="18.3457" stroke="black" stroke-width="2"/>
<line x1="1770.13" x2="1770.13" y2="18.3457" stroke="black" stroke-width="2"/>
<line x1="1908.21" x2="1908.21" y2="18.3457" stroke="black" stroke-width="2"/>
<line x1="2046.21" x2="2046.21" y2="18.3457" stroke="black" stroke-width="2"/>
<line x1="820.54" y1="4.10321e-08" x2="820.54" y2="18.3457" stroke="black" stroke-width="2"/>
<line x1="958.219" y1="4.10321e-08" x2="958.219" y2="18.3457" stroke="black" stroke-width="2"/>
<line x1="1095.9" y1="4.10321e-08" x2="1095.9" y2="18.3457" stroke="black" stroke-width="2"/>
<line x1="1233.59" y1="4.31776e-08" x2="1233.59" y2="18.3457" stroke="black" stroke-width="2"/>
<line x1="1371.27" y1="4.10321e-08" x2="1371.27" y2="18.3457" stroke="black" stroke-width="2"/>
<line x1="1508.94" y1="4.10321e-08" x2="1508.94" y2="18.3457" stroke="black" stroke-width="2"/>
<line x1="1646.63" y1="4.31776e-08" x2="1646.63" y2="18.3457" stroke="black" stroke-width="2"/>
<line x1="1784.31" y1="4.10321e-08" x2="1784.31" y2="18.3457" stroke="black" stroke-width="2"/>
<line x1="1922.39" y1="4.10321e-08" x2="1922.39" y2="18.3457" stroke="black" stroke-width="2"/>
<line x1="2060.39" y1="4.10321e-08" x2="2060.39" y2="18.3457" stroke="black" stroke-width="2"/>
<line x1="833.701" y1="4.10321e-08" x2="833.701" y2="36.2745" stroke="black" stroke-width="2"/>
<line x1="971.381" y1="4.10321e-08" x2="971.381" y2="36.2745" stroke="black" stroke-width="2"/>
<line x1="1109.06" y1="4.31776e-08" x2="1109.06" y2="36.2745" stroke="black" stroke-width="2"/>
<line x1="1246.74" y1="4.10321e-08" x2="1246.74" y2="36.2745" stroke="black" stroke-width="2"/>
<line x1="1384.42" y1="4.10321e-08" x2="1384.42" y2="36.2745" stroke="black" stroke-width="2"/>
<line x1="1522.1" y1="4.31776e-08" x2="1522.1" y2="36.2745" stroke="black" stroke-width="2"/>
<line x1="1659.79" y1="4.10321e-08" x2="1659.79" y2="36.2745" stroke="black" stroke-width="2"/>
<line x1="1797.47" y1="4.10321e-08" x2="1797.47" y2="36.2745" stroke="black" stroke-width="2"/>
<line x1="1935.54" y1="4.10321e-08" x2="1935.54" y2="36.2745" stroke="black" stroke-width="2"/>
<line x1="2073.54" y1="4.10321e-08" x2="2073.54" y2="36.2745" stroke="black" stroke-width="2"/>
<line x1="392.319" x2="392.319" y2="18.3457" stroke="black" stroke-width="2"/>
<line x1="113.319" x2="113.319" y2="18.3457" stroke="black" stroke-width="2"/>
<line y1="-1" x2="18.3457" y2="-1" transform="matrix(0 1 1 0 308.337 0)" stroke="black" stroke-width="2"/>
<line y1="-1" x2="18.3457" y2="-1" transform="matrix(0 1 1 0 29.3369 0)" stroke="black" stroke-width="2"/>
<line x1="378" x2="378" y2="18.3457" stroke="black" stroke-width="2"/>
<line x1="99" x2="99" y2="18.3457" stroke="black" stroke-width="2"/>
<line y1="-1" x2="18.3457" y2="-1" transform="matrix(0 1 1 0 322.656 0)" stroke="black" stroke-width="2"/>
<line y1="-1" x2="18.3457" y2="-1" transform="matrix(0 1 1 0 43.6555 0)" stroke="black" stroke-width="2"/>
<line x1="363.681" x2="363.681" y2="18.3457" stroke="black" stroke-width="2"/>
<line x1="84.6814" x2="84.6814" y2="18.3457" stroke="black" stroke-width="2"/>
<line y1="-1" x2="18.3457" y2="-1" transform="matrix(0 1 1 0 336.974 0)" stroke="black" stroke-width="2"/>
<line y1="-1" x2="18.3457" y2="-1" transform="matrix(0 1 1 0 57.9741 0)" stroke="black" stroke-width="2"/>
<line x1="420.656" y1="4.10321e-08" x2="420.656" y2="36.2745" stroke="black" stroke-width="2"/>
<line x1="141.656" y1="4.10321e-08" x2="141.656" y2="36.2745" stroke="black" stroke-width="2"/>
<line y1="-1" x2="36.2745" y2="-1" transform="matrix(4.65656e-08 1 1 -4.10321e-08 281 0)" stroke="black" stroke-width="2"/>
<line y1="-1" x2="36.2745" y2="-1" transform="matrix(4.65656e-08 1 1 -4.10321e-08 2 0)" stroke="black" stroke-width="2"/>
<line x1="1797.47" y1="4.10321e-08" x2="1797.47" y2="36.2745" stroke="black" stroke-width="2"/>
<line x1="1935.54" y1="4.10321e-08" x2="1935.54" y2="36.2745" stroke="black" stroke-width="2"/>
<line x1="2073.54" y1="4.10321e-08" x2="2073.54" y2="36.2745" stroke="black" stroke-width="2"/>
<line y1="-1" x2="36.2745" y2="-1" transform="matrix(-4.65656e-08 -1 -1 4.10321e-08 140.656 146)" stroke="black" stroke-width="2"/>
<line x1="1" y1="146" x2="1" y2="109.725" stroke="black" stroke-width="2"/>
<line y1="-1" x2="18.3457" y2="-1" transform="matrix(-4.42518e-08 -1 -1 4.31776e-08 151.792 146)" stroke="black" stroke-width="2"/>
<line y1="-1" x2="18.3457" y2="-1" transform="matrix(-4.42518e-08 -1 -1 4.31776e-08 126 146)" stroke="black" stroke-width="2"/>
<line x1="14.6555" y1="146" x2="14.6555" y2="127.654" stroke="black" stroke-width="2"/>
<line y1="-1" x2="18.3457" y2="-1" transform="matrix(-4.65656e-08 -1 -1 4.10321e-08 165.964 146)" stroke="black" stroke-width="2"/>
<line y1="-1" x2="18.3457" y2="-1" transform="matrix(0 -1 -1 0 180.139 146)" stroke="black" stroke-width="2"/>
<line y1="-1" x2="18.3457" y2="-1" transform="matrix(-4.42518e-08 -1 -1 4.31776e-08 194.311 146)" stroke="black" stroke-width="2"/>
<line y1="-1" x2="24.183" y2="-1" transform="matrix(-4.65656e-08 -1 -1 4.10321e-08 208.481 146)" stroke="black" stroke-width="2"/>
<line y1="-1" x2="24.183" y2="-1" transform="matrix(-4.65656e-08 -1 -1 4.10321e-08 70 146)" stroke="black" stroke-width="2"/>
<line y1="-1" x2="18.3457" y2="-1" transform="matrix(-4.65656e-08 -1 -1 4.10321e-08 222.662 146)" stroke="black" stroke-width="2"/>
<line y1="-1" x2="18.3457" y2="-1" transform="matrix(-4.65656e-08 -1 -1 4.10321e-08 236.828 146)" stroke="black" stroke-width="2"/>
<line y1="-1" x2="18.3457" y2="-1" transform="matrix(0 -1 -1 0 251.004 146)" stroke="black" stroke-width="2"/>
<line y1="-1" x2="18.3457" y2="-1" transform="matrix(-4.65656e-08 -1 -1 4.10321e-08 265.174 146)" stroke="black" stroke-width="2"/>
<line y1="-1" x2="18.3457" y2="-1" transform="matrix(0 -1 -1 0 112.319 146)" stroke="black" stroke-width="2"/>
<line x1="28.3369" y1="146" x2="28.3369" y2="127.654" stroke="black" stroke-width="2"/>
<line y1="-1" x2="18.3457" y2="-1" transform="matrix(0 -1 -1 0 98 146)" stroke="black" stroke-width="2"/>
<line x1="42.6555" y1="146" x2="42.6555" y2="127.654" stroke="black" stroke-width="2"/>
<line y1="-1" x2="18.3457" y2="-1" transform="matrix(0 -1 -1 0 83.6814 146)" stroke="black" stroke-width="2"/>
<line x1="56.9741" y1="146" x2="56.9741" y2="127.654" stroke="black" stroke-width="2"/>
<line y1="-1" x2="36.2745" y2="-1" transform="matrix(-4.65656e-08 -1 -1 4.10321e-08 140.656 146)" stroke="black" stroke-width="2"/>
<line x1="1" y1="146" x2="1" y2="109.725" stroke="black" stroke-width="2"/>
<line y1="-1" x2="36.2745" y2="-1" transform="matrix(-4.65656e-08 -1 -1 4.10321e-08 419.656 146)" stroke="black" stroke-width="2"/>
<line x1="280" y1="146" x2="280" y2="109.725" stroke="black" stroke-width="2"/>
<line y1="-1" x2="18.3457" y2="-1" transform="matrix(-4.42518e-08 -1 -1 4.31776e-08 430.792 146)" stroke="black" stroke-width="2"/>
<line y1="-1" x2="18.3457" y2="-1" transform="matrix(-4.42518e-08 -1 -1 4.31776e-08 405 146)" stroke="black" stroke-width="2"/>
<line x1="293.656" y1="146" x2="293.656" y2="127.654" stroke="black" stroke-width="2"/>
<line y1="-1" x2="18.3457" y2="-1" transform="matrix(-4.65656e-08 -1 -1 4.10321e-08 444.964 146)" stroke="black" stroke-width="2"/>
<line y1="-1" x2="18.3457" y2="-1" transform="matrix(0 -1 -1 0 459.139 146)" stroke="black" stroke-width="2"/>
<line y1="-1" x2="18.3457" y2="-1" transform="matrix(-4.42518e-08 -1 -1 4.31776e-08 473.311 146)" stroke="black" stroke-width="2"/>
<line y1="-1" x2="24.183" y2="-1" transform="matrix(-4.65656e-08 -1 -1 4.10321e-08 487.481 146)" stroke="black" stroke-width="2"/>
<line y1="-1" x2="24.183" y2="-1" transform="matrix(-4.65656e-08 -1 -1 4.10321e-08 349 146)" stroke="black" stroke-width="2"/>
<line y1="-1" x2="18.3457" y2="-1" transform="matrix(-4.65656e-08 -1 -1 4.10321e-08 501.662 146)" stroke="black" stroke-width="2"/>
<line y1="-1" x2="18.3457" y2="-1" transform="matrix(-4.65656e-08 -1 -1 4.10321e-08 515.828 146)" stroke="black" stroke-width="2"/>
<line y1="-1" x2="18.3457" y2="-1" transform="matrix(0 -1 -1 0 530.004 146)" stroke="black" stroke-width="2"/>
<line y1="-1" x2="18.3457" y2="-1" transform="matrix(-4.65656e-08 -1 -1 4.10321e-08 544.174 146)" stroke="black" stroke-width="2"/>
<line y1="-1" x2="36.2745" y2="-1" transform="matrix(-4.65656e-08 -1 -1 4.10321e-08 557.335 146)" stroke="black" stroke-width="2"/>
<line y1="-1" x2="36.2745" y2="-1" transform="matrix(-4.65656e-08 -1 -1 4.10321e-08 557.335 146)" stroke="black" stroke-width="2"/>
<line y1="-1" x2="18.3457" y2="-1" transform="matrix(-4.65656e-08 -1 -1 4.10321e-08 568.473 146)" stroke="black" stroke-width="2"/>
<line y1="-1" x2="18.3457" y2="-1" transform="matrix(-4.42518e-08 -1 -1 4.31776e-08 582.649 146)" stroke="black" stroke-width="2"/>
<line y1="-1" x2="18.3457" y2="-1" transform="matrix(0 -1 -1 0 596.819 146)" stroke="black" stroke-width="2"/>
<line y1="-1" x2="18.3457" y2="-1" transform="matrix(-4.65656e-08 -1 -1 4.10321e-08 610.996 146)" stroke="black" stroke-width="2"/>
<line y1="-1" x2="24.183" y2="-1" transform="matrix(-4.42518e-08 -1 -1 4.31776e-08 625.166 146)" stroke="black" stroke-width="2"/>
<line y1="-1" x2="18.3457" y2="-1" transform="matrix(-4.65656e-08 -1 -1 4.10321e-08 639.338 146)" stroke="black" stroke-width="2"/>
<line y1="-1" x2="18.3457" y2="-1" transform="matrix(-4.65656e-08 -1 -1 4.10321e-08 653.513 146)" stroke="black" stroke-width="2"/>
<line y1="-1" x2="18.3457" y2="-1" transform="matrix(0 -1 -1 0 667.689 146)" stroke="black" stroke-width="2"/>
<line y1="-1" x2="18.3457" y2="-1" transform="matrix(-4.65656e-08 -1 -1 4.10321e-08 681.855 146)" stroke="black" stroke-width="2"/>
<line y1="-1" x2="36.2745" y2="-1" transform="matrix(-4.65656e-08 -1 -1 4.10321e-08 695.02 146)" stroke="black" stroke-width="2"/>
<line y1="-1" x2="36.2745" y2="-1" transform="matrix(-4.65656e-08 -1 -1 4.10321e-08 695.02 146)" stroke="black" stroke-width="2"/>
<line y1="-1" x2="36.2745" y2="-1" transform="matrix(-4.65656e-08 -1 -1 4.10321e-08 832.701 146)" stroke="black" stroke-width="2"/>
<line y1="-1" x2="36.2745" y2="-1" transform="matrix(-4.65656e-08 -1 -1 4.10321e-08 970.381 146)" stroke="black" stroke-width="2"/>
<line y1="-1" x2="36.2745" y2="-1" transform="matrix(-4.42518e-08 -1 -1 4.31776e-08 1108.06 146)" stroke="black" stroke-width="2"/>
<line y1="-1" x2="36.2745" y2="-1" transform="matrix(-4.65656e-08 -1 -1 4.10321e-08 1245.74 146)" stroke="black" stroke-width="2"/>
<line y1="-1" x2="36.2745" y2="-1" transform="matrix(-4.65656e-08 -1 -1 4.10321e-08 1383.42 146)" stroke="black" stroke-width="2"/>
<line y1="-1" x2="36.2745" y2="-1" transform="matrix(-4.42518e-08 -1 -1 4.31776e-08 1521.1 146)" stroke="black" stroke-width="2"/>
<line y1="-1" x2="36.2745" y2="-1" transform="matrix(-4.65656e-08 -1 -1 4.10321e-08 1658.79 146)" stroke="black" stroke-width="2"/>
<line y1="-1" x2="18.3457" y2="-1" transform="matrix(-4.65656e-08 -1 -1 4.10321e-08 706.153 146)" stroke="black" stroke-width="2"/>
<line y1="-1" x2="18.3457" y2="-1" transform="matrix(-4.42518e-08 -1 -1 4.31776e-08 843.834 146)" stroke="black" stroke-width="2"/>
<line y1="-1" x2="18.3457" y2="-1" transform="matrix(-4.65656e-08 -1 -1 4.10321e-08 981.519 146)" stroke="black" stroke-width="2"/>
<line y1="-1" x2="18.3457" y2="-1" transform="matrix(-4.65656e-08 -1 -1 4.10321e-08 1119.2 146)" stroke="black" stroke-width="2"/>
<line y1="-1" x2="18.3457" y2="-1" transform="matrix(-4.65656e-08 -1 -1 4.10321e-08 1256.88 146)" stroke="black" stroke-width="2"/>
<line y1="-1" x2="18.3457" y2="-1" transform="matrix(-4.42518e-08 -1 -1 4.31776e-08 1394.56 146)" stroke="black" stroke-width="2"/>
<line y1="-1" x2="18.3457" y2="-1" transform="matrix(-4.65656e-08 -1 -1 4.10321e-08 1532.25 146)" stroke="black" stroke-width="2"/>
<line y1="-1" x2="18.3457" y2="-1" transform="matrix(-4.65656e-08 -1 -1 4.10321e-08 1669.93 146)" stroke="black" stroke-width="2"/>
<line y1="-1" x2="18.3457" y2="-1" transform="matrix(-4.65656e-08 -1 -1 4.10321e-08 1808 146)" stroke="black" stroke-width="2"/>
<line y1="-1" x2="18.3457" y2="-1" transform="matrix(-4.65656e-08 -1 -1 4.10321e-08 1946 146)" stroke="black" stroke-width="2"/>
<line y1="-1" x2="18.3457" y2="-1" transform="matrix(-4.65656e-08 -1 -1 4.10321e-08 720.324 146)" stroke="black" stroke-width="2"/>
<line y1="-1" x2="18.3457" y2="-1" transform="matrix(-4.65656e-08 -1 -1 4.10321e-08 858.004 146)" stroke="black" stroke-width="2"/>
<line y1="-1" x2="18.3457" y2="-1" transform="matrix(-4.42518e-08 -1 -1 4.31776e-08 995.689 146)" stroke="black" stroke-width="2"/>
<line y1="-1" x2="18.3457" y2="-1" transform="matrix(-4.65656e-08 -1 -1 4.10321e-08 1133.37 146)" stroke="black" stroke-width="2"/>
<line y1="-1" x2="18.3457" y2="-1" transform="matrix(-4.65656e-08 -1 -1 4.10321e-08 1271.05 146)" stroke="black" stroke-width="2"/>
<line y1="-1" x2="18.3457" y2="-1" transform="matrix(-4.65656e-08 -1 -1 4.10321e-08 1408.73 146)" stroke="black" stroke-width="2"/>
<line y1="-1" x2="18.3457" y2="-1" transform="matrix(-4.42518e-08 -1 -1 4.31776e-08 1546.42 146)" stroke="black" stroke-width="2"/>
<line y1="-1" x2="18.3457" y2="-1" transform="matrix(-4.65656e-08 -1 -1 4.10321e-08 1684.1 146)" stroke="black" stroke-width="2"/>
<line y1="-1" x2="18.3457" y2="-1" transform="matrix(-4.65656e-08 -1 -1 4.10321e-08 1822.17 146)" stroke="black" stroke-width="2"/>
<line y1="-1" x2="18.3457" y2="-1" transform="matrix(-4.65656e-08 -1 -1 4.10321e-08 1960.17 146)" stroke="black" stroke-width="2"/>
<line y1="-1" x2="18.3457" y2="-1" transform="matrix(0 -1 -1 0 734.5 146)" stroke="black" stroke-width="2"/>
<line y1="-1" x2="18.3457" y2="-1" transform="matrix(0 -1 -1 0 872.179 146)" stroke="black" stroke-width="2"/>
<line y1="-1" x2="18.3457" y2="-1" transform="matrix(0 -1 -1 0 1009.86 146)" stroke="black" stroke-width="2"/>
<line y1="-1" x2="18.3457" y2="-1" transform="matrix(0 -1 -1 0 1147.55 146)" stroke="black" stroke-width="2"/>
<line y1="-1" x2="18.3457" y2="-1" transform="matrix(0 -1 -1 0 1285.23 146)" stroke="black" stroke-width="2"/>
<line y1="-1" x2="18.3457" y2="-1" transform="matrix(0 -1 -1 0 1422.91 146)" stroke="black" stroke-width="2"/>
<line y1="-1" x2="18.3457" y2="-1" transform="matrix(0 -1 -1 0 1560.59 146)" stroke="black" stroke-width="2"/>
<line y1="-1" x2="18.3457" y2="-1" transform="matrix(0 -1 -1 0 1698.27 146)" stroke="black" stroke-width="2"/>
<line y1="-1" x2="18.3457" y2="-1" transform="matrix(0 -1 -1 0 1836.35 146)" stroke="black" stroke-width="2"/>
<line y1="-1" x2="18.3457" y2="-1" transform="matrix(0 -1 -1 0 1974.35 146)" stroke="black" stroke-width="2"/>
<line y1="-1" x2="18.3457" y2="-1" transform="matrix(-4.65656e-08 -1 -1 4.10321e-08 748.676 146)" stroke="black" stroke-width="2"/>
<line y1="-1" x2="18.3457" y2="-1" transform="matrix(-4.42518e-08 -1 -1 4.31776e-08 886.351 146)" stroke="black" stroke-width="2"/>
<line y1="-1" x2="18.3457" y2="-1" transform="matrix(-4.65656e-08 -1 -1 4.10321e-08 1024.04 146)" stroke="black" stroke-width="2"/>
<line y1="-1" x2="18.3457" y2="-1" transform="matrix(-4.65656e-08 -1 -1 4.10321e-08 1161.71 146)" stroke="black" stroke-width="2"/>
<line y1="-1" x2="18.3457" y2="-1" transform="matrix(-4.65656e-08 -1 -1 4.10321e-08 1299.4 146)" stroke="black" stroke-width="2"/>
<line y1="-1" x2="18.3457" y2="-1" transform="matrix(-4.65656e-08 -1 -1 4.10321e-08 1437.08 146)" stroke="black" stroke-width="2"/>
<line y1="-1" x2="18.3457" y2="-1" transform="matrix(-4.65656e-08 -1 -1 4.10321e-08 1574.76 146)" stroke="black" stroke-width="2"/>
<line y1="-1" x2="18.3457" y2="-1" transform="matrix(-4.65656e-08 -1 -1 4.10321e-08 1712.44 146)" stroke="black" stroke-width="2"/>
<line y1="-1" x2="18.3457" y2="-1" transform="matrix(-4.65656e-08 -1 -1 4.10321e-08 1850.51 146)" stroke="black" stroke-width="2"/>
<line y1="-1" x2="18.3457" y2="-1" transform="matrix(-4.65656e-08 -1 -1 4.10321e-08 1988.51 146)" stroke="black" stroke-width="2"/>
<line y1="-1" x2="24.183" y2="-1" transform="matrix(-4.65656e-08 -1 -1 4.10321e-08 762.847 146)" stroke="black" stroke-width="2"/>
<line y1="-1" x2="24.183" y2="-1" transform="matrix(-4.65656e-08 -1 -1 4.10321e-08 900.527 146)" stroke="black" stroke-width="2"/>
<line y1="-1" x2="24.183" y2="-1" transform="matrix(-4.42518e-08 -1 -1 4.31776e-08 1038.21 146)" stroke="black" stroke-width="2"/>
<line y1="-1" x2="24.183" y2="-1" transform="matrix(-4.65656e-08 -1 -1 4.10321e-08 1175.89 146)" stroke="black" stroke-width="2"/>
<line y1="-1" x2="24.183" y2="-1" transform="matrix(-4.65656e-08 -1 -1 4.10321e-08 1313.57 146)" stroke="black" stroke-width="2"/>
<line y1="-1" x2="24.183" y2="-1" transform="matrix(-4.65656e-08 -1 -1 4.10321e-08 1451.25 146)" stroke="black" stroke-width="2"/>
<line y1="-1" x2="24.183" y2="-1" transform="matrix(-4.65656e-08 -1 -1 4.10321e-08 1588.94 146)" stroke="black" stroke-width="2"/>
<line y1="-1" x2="24.183" y2="-1" transform="matrix(-4.65656e-08 -1 -1 4.10321e-08 1726.62 146)" stroke="black" stroke-width="2"/>
<line y1="-1" x2="24.183" y2="-1" transform="matrix(-4.65656e-08 -1 -1 4.10321e-08 1864.69 146)" stroke="black" stroke-width="2"/>
<line y1="-1" x2="24.183" y2="-1" transform="matrix(-4.65656e-08 -1 -1 4.10321e-08 2002.69 146)" stroke="black" stroke-width="2"/>
<line y1="-1" x2="18.3457" y2="-1" transform="matrix(-4.42518e-08 -1 -1 4.31776e-08 777.023 146)" stroke="black" stroke-width="2"/>
<line y1="-1" x2="18.3457" y2="-1" transform="matrix(-4.65656e-08 -1 -1 4.10321e-08 914.702 146)" stroke="black" stroke-width="2"/>
<line y1="-1" x2="18.3457" y2="-1" transform="matrix(-4.65656e-08 -1 -1 4.10321e-08 1052.38 146)" stroke="black" stroke-width="2"/>
<line y1="-1" x2="18.3457" y2="-1" transform="matrix(-4.42518e-08 -1 -1 4.31776e-08 1190.06 146)" stroke="black" stroke-width="2"/>
<line y1="-1" x2="18.3457" y2="-1" transform="matrix(-4.65656e-08 -1 -1 4.10321e-08 1327.74 146)" stroke="black" stroke-width="2"/>
<line y1="-1" x2="18.3457" y2="-1" transform="matrix(-4.65656e-08 -1 -1 4.10321e-08 1465.42 146)" stroke="black" stroke-width="2"/>
<line y1="-1" x2="18.3457" y2="-1" transform="matrix(-4.65656e-08 -1 -1 4.10321e-08 1603.1 146)" stroke="black" stroke-width="2"/>
<line y1="-1" x2="18.3457" y2="-1" transform="matrix(-4.65656e-08 -1 -1 4.10321e-08 1740.79 146)" stroke="black" stroke-width="2"/>
<line y1="-1" x2="18.3457" y2="-1" transform="matrix(-4.65656e-08 -1 -1 4.10321e-08 1878.86 146)" stroke="black" stroke-width="2"/>
<line y1="-1" x2="18.3457" y2="-1" transform="matrix(-4.65656e-08 -1 -1 4.10321e-08 2016.86 146)" stroke="black" stroke-width="2"/>
<line y1="-1" x2="18.3457" y2="-1" transform="matrix(-4.65656e-08 -1 -1 4.10321e-08 791.189 146)" stroke="black" stroke-width="2"/>
<line y1="-1" x2="18.3457" y2="-1" transform="matrix(-4.42518e-08 -1 -1 4.31776e-08 928.874 146)" stroke="black" stroke-width="2"/>
<line y1="-1" x2="18.3457" y2="-1" transform="matrix(-4.65656e-08 -1 -1 4.10321e-08 1066.56 146)" stroke="black" stroke-width="2"/>
<line y1="-1" x2="18.3457" y2="-1" transform="matrix(-4.65656e-08 -1 -1 4.10321e-08 1204.23 146)" stroke="black" stroke-width="2"/>
<line y1="-1" x2="18.3457" y2="-1" transform="matrix(-4.42518e-08 -1 -1 4.31776e-08 1341.91 146)" stroke="black" stroke-width="2"/>
<line y1="-1" x2="18.3457" y2="-1" transform="matrix(-4.65656e-08 -1 -1 4.10321e-08 1479.6 146)" stroke="black" stroke-width="2"/>
<line y1="-1" x2="18.3457" y2="-1" transform="matrix(-4.65656e-08 -1 -1 4.10321e-08 1617.28 146)" stroke="black" stroke-width="2"/>
<line y1="-1" x2="18.3457" y2="-1" transform="matrix(-4.65656e-08 -1 -1 4.10321e-08 1754.96 146)" stroke="black" stroke-width="2"/>
<line y1="-1" x2="18.3457" y2="-1" transform="matrix(-4.65656e-08 -1 -1 4.10321e-08 1893.03 146)" stroke="black" stroke-width="2"/>
<line y1="-1" x2="18.3457" y2="-1" transform="matrix(-4.65656e-08 -1 -1 4.10321e-08 2031.03 146)" stroke="black" stroke-width="2"/>
<line y1="-1" x2="18.3457" y2="-1" transform="matrix(0 -1 -1 0 805.368 146)" stroke="black" stroke-width="2"/>
<line y1="-1" x2="18.3457" y2="-1" transform="matrix(0 -1 -1 0 943.05 146)" stroke="black" stroke-width="2"/>
<line y1="-1" x2="18.3457" y2="-1" transform="matrix(0 -1 -1 0 1080.73 146)" stroke="black" stroke-width="2"/>
<line y1="-1" x2="18.3457" y2="-1" transform="matrix(0 -1 -1 0 1218.41 146)" stroke="black" stroke-width="2"/>
<line y1="-1" x2="18.3457" y2="-1" transform="matrix(0 -1 -1 0 1356.09 146)" stroke="black" stroke-width="2"/>
<line y1="-1" x2="18.3457" y2="-1" transform="matrix(0 -1 -1 0 1493.77 146)" stroke="black" stroke-width="2"/>
<line y1="-1" x2="18.3457" y2="-1" transform="matrix(0 -1 -1 0 1631.45 146)" stroke="black" stroke-width="2"/>
<line y1="-1" x2="18.3457" y2="-1" transform="matrix(0 -1 -1 0 1769.13 146)" stroke="black" stroke-width="2"/>
<line y1="-1" x2="18.3457" y2="-1" transform="matrix(0 -1 -1 0 1907.21 146)" stroke="black" stroke-width="2"/>
<line y1="-1" x2="18.3457" y2="-1" transform="matrix(0 -1 -1 0 2045.21 146)" stroke="black" stroke-width="2"/>
<line y1="-1" x2="18.3457" y2="-1" transform="matrix(-4.65656e-08 -1 -1 4.10321e-08 819.54 146)" stroke="black" stroke-width="2"/>
<line y1="-1" x2="18.3457" y2="-1" transform="matrix(-4.65656e-08 -1 -1 4.10321e-08 957.219 146)" stroke="black" stroke-width="2"/>
<line y1="-1" x2="18.3457" y2="-1" transform="matrix(-4.65656e-08 -1 -1 4.10321e-08 1094.9 146)" stroke="black" stroke-width="2"/>
<line y1="-1" x2="18.3457" y2="-1" transform="matrix(-4.42518e-08 -1 -1 4.31776e-08 1232.59 146)" stroke="black" stroke-width="2"/>
<line y1="-1" x2="18.3457" y2="-1" transform="matrix(-4.65656e-08 -1 -1 4.10321e-08 1370.27 146)" stroke="black" stroke-width="2"/>
<line y1="-1" x2="18.3457" y2="-1" transform="matrix(-4.65656e-08 -1 -1 4.10321e-08 1507.94 146)" stroke="black" stroke-width="2"/>
<line y1="-1" x2="18.3457" y2="-1" transform="matrix(-4.42518e-08 -1 -1 4.31776e-08 1645.63 146)" stroke="black" stroke-width="2"/>
<line y1="-1" x2="18.3457" y2="-1" transform="matrix(-4.65656e-08 -1 -1 4.10321e-08 1783.31 146)" stroke="black" stroke-width="2"/>
<line y1="-1" x2="18.3457" y2="-1" transform="matrix(-4.65656e-08 -1 -1 4.10321e-08 1921.39 146)" stroke="black" stroke-width="2"/>
<line y1="-1" x2="18.3457" y2="-1" transform="matrix(-4.65656e-08 -1 -1 4.10321e-08 2059.39 146)" stroke="black" stroke-width="2"/>
<line y1="-1" x2="36.2745" y2="-1" transform="matrix(-4.65656e-08 -1 -1 4.10321e-08 832.701 146)" stroke="black" stroke-width="2"/>
<line y1="-1" x2="36.2745" y2="-1" transform="matrix(-4.65656e-08 -1 -1 4.10321e-08 970.381 146)" stroke="black" stroke-width="2"/>
<line y1="-1" x2="36.2745" y2="-1" transform="matrix(-4.42518e-08 -1 -1 4.31776e-08 1108.06 146)" stroke="black" stroke-width="2"/>
<line y1="-1" x2="36.2745" y2="-1" transform="matrix(-4.65656e-08 -1 -1 4.10321e-08 1245.74 146)" stroke="black" stroke-width="2"/>
<line y1="-1" x2="36.2745" y2="-1" transform="matrix(-4.65656e-08 -1 -1 4.10321e-08 1383.42 146)" stroke="black" stroke-width="2"/>
<line y1="-1" x2="36.2745" y2="-1" transform="matrix(-4.42518e-08 -1 -1 4.31776e-08 1521.1 146)" stroke="black" stroke-width="2"/>
<line y1="-1" x2="36.2745" y2="-1" transform="matrix(-4.65656e-08 -1 -1 4.10321e-08 1658.79 146)" stroke="black" stroke-width="2"/>
<line y1="-1" x2="36.2745" y2="-1" transform="matrix(-4.65656e-08 -1 -1 4.10321e-08 1796.47 146)" stroke="black" stroke-width="2"/>
<line y1="-1" x2="36.2745" y2="-1" transform="matrix(-4.65656e-08 -1 -1 4.10321e-08 1934.54 146)" stroke="black" stroke-width="2"/>
<line y1="-1" x2="36.2745" y2="-1" transform="matrix(-4.65656e-08 -1 -1 4.10321e-08 2072.54 146)" stroke="black" stroke-width="2"/>
<line y1="-1" x2="18.3457" y2="-1" transform="matrix(0 -1 -1 0 391.319 146)" stroke="black" stroke-width="2"/>
<line x1="307.337" y1="146" x2="307.337" y2="127.654" stroke="black" stroke-width="2"/>
<line y1="-1" x2="18.3457" y2="-1" transform="matrix(0 -1 -1 0 377 146)" stroke="black" stroke-width="2"/>
<line x1="321.656" y1="146" x2="321.656" y2="127.654" stroke="black" stroke-width="2"/>
<line y1="-1" x2="18.3457" y2="-1" transform="matrix(0 -1 -1 0 362.681 146)" stroke="black" stroke-width="2"/>
<line x1="335.974" y1="146" x2="335.974" y2="127.654" stroke="black" stroke-width="2"/>
<line y1="-1" x2="36.2745" y2="-1" transform="matrix(-4.65656e-08 -1 -1 4.10321e-08 419.656 146)" stroke="black" stroke-width="2"/>
<line x1="280" y1="146" x2="280" y2="109.725" stroke="black" stroke-width="2"/>
<line y1="-1" x2="36.2745" y2="-1" transform="matrix(-4.65656e-08 -1 -1 4.10321e-08 1796.47 146)" stroke="black" stroke-width="2"/>
<line y1="-1" x2="36.2745" y2="-1" transform="matrix(-4.65656e-08 -1 -1 4.10321e-08 1934.54 146)" stroke="black" stroke-width="2"/>
<line y1="-1" x2="36.2745" y2="-1" transform="matrix(-4.65656e-08 -1 -1 4.10321e-08 2072.54 146)" stroke="black" stroke-width="2"/>
</svg>
