<svg width="2498" height="500" viewBox="0 0 2498 500" fill="none" xmlns="http://www.w3.org/2000/svg">
<rect width="2371.17" height="498.485" fill="white"/>
<rect width="500" height="500" fill="white"/>
<rect x="500" width="500" height="500" fill="white"/>
<rect x="1000" width="500" height="500" fill="white"/>
<rect x="1500" width="500" height="500" fill="white"/>
<rect x="1998" width="500" height="500" fill="white"/>
<path fill-rule="evenodd" clip-rule="evenodd" d="M304.77 130.211C332.79 138.205 361.877 121.582 369.737 93.0825C377.597 64.5831 361.253 34.9993 333.232 27.0053C310.194 20.4327 286.435 30.5008 274.346 50.1286C273.331 51.7758 270.842 51.8457 269.739 50.257C263.759 41.6497 255.228 34.7444 244.754 30.8658C217.408 20.7397 187.168 35.078 177.212 62.8913C173.607 72.9635 173.156 83.4216 175.346 93.1461C175.743 94.91 174.248 96.6031 172.447 96.4366C149.209 94.2874 126.553 108.14 118.194 131.492C108.238 159.305 122.335 190.061 149.681 200.188C177.028 210.314 207.267 195.975 217.223 168.162C220.829 158.09 221.28 147.632 219.089 137.907C218.692 136.143 220.187 134.45 221.987 134.617C241.627 136.434 260.853 126.819 271.382 109.7C272.395 108.053 274.884 107.982 275.988 109.57C282.725 119.264 292.656 126.755 304.77 130.211ZM305.168 412.794C304.855 410.608 307.357 408.783 309.348 409.738C332.068 420.624 359.871 413.685 374.832 392.083C391.592 367.884 385.89 334.449 362.098 317.404C338.306 300.358 305.432 306.157 288.673 330.355C280.594 342.021 277.735 355.832 279.605 368.92C279.918 371.105 277.421 372.928 275.431 371.973C259.445 364.309 241.118 365.506 226.469 374.176C226.069 374.413 225.577 374.008 225.733 373.57V373.57C235.69 345.757 221.592 315.001 194.246 304.875C166.9 294.749 136.66 309.087 126.704 336.9C116.748 364.714 130.845 395.47 158.192 405.596C171.5 410.524 185.493 409.658 197.5 404.265C199.642 403.303 202.347 405.538 201.801 407.822C196.597 429.583 205.261 453.219 224.916 465.821C249.535 481.606 282.073 474.105 297.593 449.066C304.556 437.833 306.911 424.979 305.168 412.794Z" fill="black"/>
<path fill-rule="evenodd" clip-rule="evenodd" d="M810.949 67.8814C814.548 97.8535 793.169 125.068 763.197 128.667C762.424 128.76 761.653 128.836 760.884 128.896C759.107 129.035 757.936 130.911 758.59 132.57C760.271 136.834 761.44 141.381 762.012 146.146C765.359 174.011 747.114 199.494 720.446 205.83C718.359 206.326 717.566 209.152 719.092 210.66C727.573 219.041 733.384 230.242 734.916 243C738.262 270.866 720.017 296.348 693.349 302.684C691.261 303.18 690.469 306.006 691.995 307.515C700.476 315.895 706.286 327.096 707.818 339.854C710.487 362.076 699.424 382.783 681.308 393.472C680.038 394.221 679.635 395.895 680.425 397.14C684.66 403.814 687.508 411.515 688.513 419.886C692.112 449.858 670.733 477.073 640.76 480.672C610.788 484.271 583.574 462.892 579.974 432.92C577.306 410.697 588.369 389.991 606.485 379.302C607.755 378.552 608.158 376.878 607.368 375.633C603.133 368.959 600.285 361.258 599.28 352.887C595.934 325.021 614.179 299.538 640.847 293.202C642.935 292.706 643.727 289.88 642.201 288.372C633.72 279.992 627.909 268.791 626.377 256.033C623.031 228.167 641.276 202.685 667.944 196.349C670.031 195.853 670.824 193.027 669.298 191.518C660.817 183.138 655.006 171.937 653.474 159.179C649.875 129.207 671.254 101.992 701.226 98.3933C701.999 98.3005 702.77 98.2243 703.539 98.1645C705.316 98.0261 706.487 96.1492 705.834 94.491C704.152 90.2267 702.983 85.6793 702.411 80.9149C698.812 50.9428 720.191 23.728 750.163 20.1289C780.135 16.5298 807.35 37.9094 810.949 67.8814Z" fill="black"/>
<path fill-rule="evenodd" clip-rule="evenodd" d="M833.917 105.034C856.258 125.336 857.911 159.904 837.61 182.245C817.308 204.586 782.739 206.24 760.398 185.938C738.057 165.636 736.404 131.068 756.706 108.727C777.008 86.3856 811.576 84.7324 833.917 105.034ZM860.63 289.991C859.11 289.325 858.567 287.391 859.517 286.03C875.009 263.828 871.976 233.043 851.407 214.352C829.066 194.05 794.497 195.703 774.196 218.044C753.894 240.385 755.547 274.954 777.888 295.256C782.404 299.359 787.42 302.566 792.716 304.886C794.236 305.552 794.779 307.486 793.829 308.847C778.337 331.049 781.37 361.834 801.939 380.525C807.082 385.199 812.874 388.709 818.99 391.071C820.516 391.66 821.151 393.525 820.305 394.924C807.063 416.831 810.703 445.742 830.362 463.607C852.703 483.909 887.272 482.255 907.573 459.914C927.875 437.574 926.222 403.005 903.881 382.703C898.737 378.029 892.946 374.519 886.829 372.157C885.304 371.568 884.669 369.703 885.515 368.304C898.757 346.398 895.117 317.486 875.458 299.621C870.942 295.517 865.926 292.311 860.63 289.991Z" fill="black"/>
<path fill-rule="evenodd" clip-rule="evenodd" d="M1287.06 110.146C1285.75 112.184 1287.76 115.41 1290.17 115.139C1292.07 114.926 1294 114.817 1295.95 114.817C1325.2 114.817 1348.91 139.337 1348.91 169.584C1348.91 183.456 1343.92 196.123 1335.7 205.773C1334.38 207.322 1335.23 209.877 1337.22 210.335C1360.88 215.809 1378.57 237.66 1378.57 263.782C1378.57 270.774 1377.3 277.46 1374.99 283.608C1374.62 284.59 1374.88 285.7 1375.66 286.411C1386.54 296.441 1393.4 311.049 1393.4 327.312C1393.4 340.857 1388.64 353.253 1380.76 362.813C1379.57 364.265 1380.24 366.56 1382.02 367.152C1403.36 374.219 1418.81 394.903 1418.81 419.32C1418.81 449.566 1395.1 474.086 1365.86 474.086C1336.61 474.086 1312.9 449.566 1312.9 419.32C1312.9 405.775 1317.65 393.379 1325.53 383.819C1326.73 382.367 1326.06 380.071 1324.27 379.48C1302.93 372.413 1287.48 351.728 1287.48 327.312V327.312C1287.48 326.059 1285.87 325.368 1284.96 326.226C1275.55 335.067 1263.06 340.456 1249.35 340.456C1224.13 340.456 1203.02 322.224 1197.69 297.809C1197.25 295.775 1194.59 294.924 1193.04 296.318C1183.74 304.706 1171.57 309.786 1158.26 309.786C1129.01 309.786 1105.3 285.266 1105.3 255.02C1105.3 224.773 1129.01 200.253 1158.26 200.253C1158.76 200.253 1159.03 199.637 1158.68 199.273C1149.25 189.384 1143.43 175.806 1143.43 160.821C1143.43 130.575 1167.14 106.055 1196.39 106.055C1196.45 106.055 1196.49 105.99 1196.46 105.937C1192.36 98.1612 1190.03 89.2451 1190.03 79.7666C1190.03 49.5198 1213.75 25 1242.99 25C1272.24 25 1295.95 49.5198 1295.95 79.7666C1295.95 91.0052 1292.68 101.453 1287.06 110.146ZM1209.92 242.9C1210.36 244.935 1213.02 245.785 1214.57 244.391C1223.87 236.003 1236.04 230.923 1249.35 230.923C1258.93 230.923 1267.91 233.554 1275.67 238.155C1276.95 238.913 1278.62 238.451 1279.32 237.144C1281.17 233.717 1283.37 230.517 1285.86 227.593C1287.18 226.044 1286.32 223.489 1284.34 223.03C1267.26 219.08 1253.3 206.601 1246.85 190.141C1246 187.979 1242.6 187.694 1241.4 189.685C1232.06 205.235 1215.39 215.588 1196.39 215.588C1195.89 215.588 1195.62 216.204 1195.97 216.568C1202.78 223.708 1207.7 232.772 1209.92 242.9ZM1248.77 134.211C1251.18 133.94 1253.2 137.166 1251.88 139.204C1251.56 139.704 1251.24 140.21 1250.94 140.721C1249.74 142.712 1246.34 142.428 1245.49 140.265C1244.74 138.337 1243.88 136.463 1242.92 134.651C1242.89 134.598 1242.93 134.533 1242.99 134.533C1244.95 134.533 1246.87 134.424 1248.77 134.211ZM1187.92 419.32C1187.92 449.566 1164.21 474.086 1134.96 474.086C1105.71 474.086 1082 449.566 1082 419.32C1082 389.073 1105.71 364.553 1134.96 364.553C1164.21 364.553 1187.92 389.073 1187.92 419.32Z" fill="black"/>
<path fill-rule="evenodd" clip-rule="evenodd" d="M1920.81 118.922C1919.81 119.936 1919.81 121.586 1920.81 122.6C1930.65 132.557 1936.74 146.304 1936.74 161.487C1936.74 178.33 1929.25 193.407 1917.45 203.502C1916.22 204.549 1916.22 206.48 1917.45 207.528C1929.25 217.623 1936.74 232.699 1936.74 249.543C1936.74 264.201 1931.07 277.521 1921.82 287.384C1920.88 288.383 1920.88 289.953 1921.82 290.952C1931.07 300.815 1936.74 314.135 1936.74 328.793C1936.74 346.224 1928.72 361.763 1916.2 371.847C1914.89 372.901 1914.89 374.943 1916.2 375.998C1928.72 386.081 1936.74 401.62 1936.74 419.051C1936.74 449.446 1912.34 474.086 1882.25 474.086C1852.15 474.086 1827.75 449.446 1827.75 419.051C1827.75 401.62 1835.78 386.081 1848.3 375.998C1849.61 374.943 1849.61 372.901 1848.3 371.847C1842.52 367.191 1837.69 361.372 1834.18 354.741C1833.51 353.482 1831.93 352.988 1830.67 353.641C1823.25 357.459 1814.85 359.612 1805.95 359.612C1775.86 359.612 1751.46 334.972 1751.46 304.577C1751.46 274.182 1775.86 249.542 1805.95 249.542C1812.33 249.542 1818.44 250.646 1824.13 252.676C1825.87 253.299 1827.77 251.948 1827.76 250.097C1827.75 249.913 1827.75 249.728 1827.75 249.543C1827.75 232.699 1835.24 217.623 1847.05 207.528C1848.27 206.48 1848.27 204.549 1847.05 203.502C1835.24 193.407 1827.75 178.33 1827.75 161.487C1827.75 146.304 1833.84 132.557 1843.68 122.6C1844.69 121.586 1844.69 119.936 1843.68 118.922C1833.84 108.965 1827.75 95.2178 1827.75 80.035C1827.75 49.64 1852.15 25 1882.25 25C1912.34 25 1936.74 49.64 1936.74 80.035C1936.74 95.2179 1930.65 108.965 1920.81 118.922ZM1672.99 82.2366C1672.99 97.4194 1666.9 111.166 1657.06 121.123C1656.05 122.137 1656.05 123.788 1657.06 124.802C1666.9 134.759 1672.99 148.505 1672.99 163.688C1672.99 177.834 1667.7 190.734 1659.02 200.483C1658.14 201.466 1658.14 202.96 1659.02 203.943C1667.7 213.692 1672.99 226.592 1672.99 240.738C1672.99 256.459 1666.46 270.64 1656 280.669C1654.92 281.696 1654.92 283.433 1656 284.46C1661.97 290.188 1666.67 297.272 1669.59 305.224C1670.07 306.512 1671.47 307.216 1672.79 306.823C1677.69 305.362 1682.88 304.578 1688.25 304.578C1718.34 304.578 1742.74 329.218 1742.74 359.613C1742.74 390.008 1718.34 414.648 1688.25 414.648C1684.1 414.648 1680.07 414.181 1676.19 413.296C1674.48 412.905 1672.82 414.3 1672.91 416.054C1672.96 417.046 1672.99 418.045 1672.99 419.051C1672.99 449.446 1648.59 474.086 1618.49 474.086C1588.4 474.086 1564 449.446 1564 419.051C1564 400.383 1573.2 383.886 1587.28 373.935C1588.78 372.875 1588.78 370.567 1587.28 369.507C1573.2 359.556 1564 343.059 1564 324.391C1564 308.67 1570.53 294.488 1580.99 284.46C1582.07 283.433 1582.07 281.696 1580.99 280.669C1570.53 270.64 1564 256.459 1564 240.738C1564 226.592 1569.28 213.692 1577.97 203.943C1578.84 202.96 1578.84 201.466 1577.97 200.483C1569.28 190.734 1564 177.834 1564 163.688C1564 148.505 1570.09 134.759 1579.93 124.802C1580.93 123.788 1580.93 122.137 1579.93 121.123C1570.09 111.166 1564 97.4194 1564 82.2366C1564 51.8416 1588.4 27.2016 1618.49 27.2016C1648.59 27.2016 1672.99 51.8416 1672.99 82.2366Z" fill="black"/>
<path fill-rule="evenodd" clip-rule="evenodd" d="M2159.98 127.495C2159.19 126.309 2159.51 124.692 2160.68 123.887C2174.95 114.1 2184.3 97.7523 2184.3 79.2374C2184.3 49.2829 2159.83 25 2129.64 25C2099.45 25 2074.98 49.2829 2074.98 79.2374C2074.98 90.2634 2078.3 100.521 2083.99 109.082C2084.78 110.267 2084.47 111.885 2083.29 112.69C2069.03 122.477 2059.68 138.825 2059.68 157.339C2059.68 177.129 2070.36 194.443 2086.31 203.915C2087.91 204.865 2088.07 207.213 2086.62 208.376C2074.19 218.318 2066.24 233.551 2066.24 250.627C2066.24 273.582 2080.61 293.207 2100.91 301.125C2102.71 301.828 2103.22 304.267 2101.85 305.633C2092 315.443 2085.91 328.974 2085.91 343.916C2085.91 349.021 2086.62 353.961 2087.95 358.645C2088.38 360.153 2087.38 361.726 2085.83 361.975C2059.84 366.163 2040 388.537 2040 415.509C2040 445.463 2064.47 469.746 2094.66 469.746C2124.85 469.746 2149.32 445.463 2149.32 415.509C2149.32 410.404 2148.61 405.464 2147.28 400.781C2146.85 399.272 2147.85 397.699 2149.4 397.45C2175.39 393.262 2195.23 370.888 2195.23 343.916C2195.23 320.961 2180.86 301.336 2160.56 293.418C2158.75 292.715 2158.24 290.276 2159.61 288.91C2169.46 279.1 2175.55 265.569 2175.55 250.627C2175.55 230.838 2164.87 213.524 2148.92 204.052C2147.32 203.101 2147.16 200.753 2148.61 199.59C2161.04 189.648 2168.99 174.416 2168.99 157.339C2168.99 146.313 2165.68 136.056 2159.98 127.495ZM2400.51 113.016C2399.55 112.146 2399.38 110.694 2400.11 109.626C2406.03 100.957 2409.49 90.4982 2409.49 79.2374C2409.49 49.2829 2385.02 25 2354.83 25C2324.65 25 2300.17 49.2829 2300.17 79.2374C2300.17 95.0633 2307 109.306 2317.9 119.221C2318.86 120.091 2319.03 121.543 2318.3 122.611C2312.38 131.28 2308.92 141.739 2308.92 153C2308.92 171.803 2318.56 188.371 2333.21 198.102C2335.02 199.303 2334.75 202.289 2332.77 203.16C2313.57 211.575 2300.17 230.633 2300.17 252.797C2300.17 273.365 2311.71 291.26 2328.72 300.454C2330.51 301.426 2330.63 304.132 2328.93 305.259C2314.23 314.98 2304.55 331.579 2304.55 350.423C2304.55 375.828 2322.15 397.153 2345.91 403.045C2347.32 403.395 2348.18 404.847 2347.82 406.252C2346.69 410.597 2346.09 415.153 2346.09 419.849C2346.09 449.803 2370.56 474.086 2400.75 474.086C2430.93 474.086 2455.4 449.803 2455.4 419.849C2455.4 394.444 2437.8 373.119 2414.04 367.227C2412.63 366.877 2411.77 365.425 2412.13 364.019C2413.26 359.675 2413.86 355.119 2413.86 350.423C2413.86 329.855 2402.32 311.96 2385.32 302.766C2383.52 301.794 2383.4 299.088 2385.11 297.961C2399.81 288.24 2409.49 271.64 2409.49 252.797C2409.49 233.993 2399.85 217.425 2385.2 207.695C2383.39 206.494 2383.65 203.508 2385.64 202.636C2404.84 194.221 2418.24 175.163 2418.24 153C2418.24 137.174 2411.4 122.931 2400.51 113.016Z" fill="black"/>
<ellipse cx="2173.37" cy="126.966" rx="54.6585" ry="54.2374" fill="black"/>
<ellipse cx="2228.02" cy="185.542" rx="54.6585" ry="54.2374" fill="black"/>
<ellipse cx="2228.02" cy="185.542" rx="54.6585" ry="54.2374" fill="black"/>
</svg>
