<svg width="779" height="364" viewBox="0 0 779 364" fill="none" xmlns="http://www.w3.org/2000/svg">
<path fill-rule="evenodd" clip-rule="evenodd" d="M664.791 241.249C714.893 252.818 764.886 221.581 776.455 171.479C788.023 121.378 756.786 71.3842 706.685 59.8157C666.234 50.4756 625.854 69.0384 605.71 102.904C600.266 112.056 585.861 114.908 577.981 107.745C560.021 91.4203 537.752 79.3352 512.422 73.4864C484.227 66.9762 456.055 69.0729 430.657 78.0565C422.658 80.8857 413.559 76.2647 410.514 68.3457C400.053 41.1432 376.705 19.4546 346.171 12.4042C317.216 5.71833 288.297 13.6965 267.196 31.4772C261.777 36.044 253.739 36.5213 248.092 32.2381C231.271 19.4774 211.543 9.9843 189.637 4.92623C106.656 -14.2342 23.8544 37.5024 4.694 120.483C-14.4664 203.464 37.2702 286.266 120.251 305.426C203.232 324.586 286.033 272.85 305.194 189.869C305.237 189.68 305.28 189.492 305.323 189.303C305.323 189.302 305.324 189.302 305.325 189.302C309.585 190.286 313.844 190.952 318.077 191.316C326.534 192.044 333.503 199.511 333.008 207.984C328.914 278.047 375.758 342.924 446.44 359.245C525.35 377.465 604.089 328.267 622.31 249.357C622.43 248.835 622.548 248.314 622.662 247.792C624.944 237.404 638.328 231.398 648.059 235.69C653.354 238.026 658.944 239.899 664.791 241.249Z" fill="black"/>
</svg>
